<svg width="59" height="46" viewBox="0 0 59 46" fill="none" xmlns="http://www.w3.org/2000/svg">
<path d="M13.0078 43.4116C13.0697 43.4849 13.1234 43.5394 13.1689 43.5752C13.2161 43.611 13.2633 43.6289 13.3105 43.6289C13.3577 43.6289 13.4123 43.6077 13.4741 43.5654L13.5742 43.729C13.4635 43.8934 13.3236 44.0081 13.1543 44.0732C13.0827 44.1009 13.0054 44.1147 12.9224 44.1147C12.841 44.1147 12.7539 44.0798 12.6611 44.0098C12.5684 43.9414 12.4813 43.8478 12.3999 43.729C12.3185 43.6102 12.2412 43.4832 12.168 43.3481C12.0947 43.2131 12.0264 43.0674 11.9629 42.9111C11.8424 42.6198 11.7497 42.3691 11.6846 42.1592C11.5771 42.304 11.4803 42.4196 11.394 42.5059V43.2212L11.4355 44C11.2972 44.0423 11.1385 44.0635 10.9595 44.0635C10.7821 44.0635 10.6673 44.0423 10.6152 44L10.6445 43.2139V41.2559C10.6445 41.0508 10.5851 40.9189 10.4663 40.8604C10.4517 40.8522 10.4281 40.8433 10.3955 40.8335C10.3646 40.8237 10.3459 40.8172 10.3394 40.814C10.3149 40.7814 10.3027 40.7285 10.3027 40.6553C10.3027 40.5804 10.3052 40.5283 10.3101 40.499C10.3914 40.4827 10.5371 40.4746 10.7471 40.4746C10.957 40.4746 11.1727 40.4827 11.394 40.499V42.02C11.4136 41.9907 11.4486 41.9354 11.499 41.854C11.5495 41.771 11.5902 41.7051 11.6211 41.6562C11.6536 41.6074 11.6984 41.5399 11.7554 41.4536C11.814 41.3657 11.8644 41.2941 11.9067 41.2388C11.9491 41.1818 12.0011 41.1143 12.063 41.0361C12.1265 40.958 12.1842 40.8937 12.2363 40.8433C12.2884 40.7928 12.3478 40.7399 12.4146 40.6846C12.4829 40.6276 12.5472 40.582 12.6074 40.5479C12.7441 40.473 12.8857 40.4355 13.0322 40.4355C13.1787 40.4355 13.3049 40.4795 13.4106 40.5674C13.5164 40.6536 13.5693 40.7733 13.5693 40.9263C13.5693 41.0776 13.5173 41.1997 13.4131 41.2925C13.3089 41.3853 13.1868 41.4316 13.0469 41.4316C13.0176 41.4316 12.9883 41.4292 12.959 41.4243C12.959 41.255 12.9232 41.1379 12.8516 41.0728C12.819 41.0435 12.7808 41.0288 12.7368 41.0288C12.6929 41.0288 12.644 41.0459 12.5903 41.0801C12.5366 41.1126 12.4862 41.1509 12.439 41.1948C12.3918 41.2388 12.334 41.3031 12.2656 41.3877C12.1566 41.5179 12.0394 41.6685 11.9141 41.8394C11.9759 41.9305 12.0532 42.0469 12.146 42.1885C12.2404 42.3301 12.3201 42.4497 12.3853 42.5474C12.4504 42.645 12.5244 42.7549 12.6074 42.877C12.6904 42.9974 12.762 43.0983 12.8223 43.1797C12.8841 43.2611 12.946 43.3384 13.0078 43.4116ZM17.0166 43.9902C16.9157 44.013 16.8424 44.0244 16.7969 44.0244C16.7529 44.0244 16.6431 44.0146 16.4673 43.9951C16.1304 43.7607 15.5273 42.8289 14.6582 41.1997C14.7331 42.3927 14.7949 43.2375 14.8438 43.7339L14.8682 43.9805C14.7233 44.0212 14.5809 44.0415 14.4409 44.0415C14.3026 44.0415 14.2082 44.0212 14.1577 43.9805C14.2 43.7233 14.2212 43.0584 14.2212 41.9858C14.2212 41.4292 14.2155 41.1175 14.2041 41.0508C14.1943 40.984 14.1797 40.9368 14.1602 40.9092C14.1309 40.8701 14.0967 40.8449 14.0576 40.8335C14.0186 40.8221 13.9966 40.8156 13.9917 40.814C13.9673 40.7814 13.9551 40.7285 13.9551 40.6553C13.9551 40.5804 13.9575 40.5283 13.9624 40.499C14.0438 40.4827 14.1512 40.4746 14.2847 40.4746C14.4181 40.4746 14.5955 40.4827 14.8169 40.499C14.908 40.5397 15.026 40.6585 15.1709 40.8555C15.3158 41.0508 15.4525 41.2591 15.5811 41.4805C15.7113 41.7018 15.8732 41.981 16.0669 42.3179C16.2622 42.6532 16.4193 42.9152 16.5381 43.104L16.4111 40.5259C16.5348 40.4884 16.652 40.4697 16.7627 40.4697C16.875 40.4697 16.9596 40.4933 17.0166 40.5405C17.0036 40.7033 16.9971 41.1037 16.9971 41.7417C16.9971 42.3797 17.0036 43.1292 17.0166 43.9902ZM21.2598 42.1689C21.2598 42.6328 21.1556 43.0251 20.9473 43.3457C20.7389 43.6647 20.4395 43.8828 20.0488 44C19.8617 44.0553 19.6582 44.083 19.4385 44.083C19.2204 44.083 19.0015 44.0439 18.7817 43.9658C18.562 43.8861 18.3651 43.7746 18.1909 43.6313C18.0184 43.4865 17.88 43.3018 17.7759 43.0771C17.6717 42.8525 17.6196 42.6051 17.6196 42.335C17.6196 41.8304 17.736 41.4211 17.9688 41.1069C18.2015 40.7928 18.5368 40.5771 18.9746 40.46C19.126 40.4193 19.2871 40.3989 19.458 40.3989C19.6305 40.3989 19.8039 40.4225 19.978 40.4697C20.1522 40.5169 20.3158 40.5894 20.4688 40.687C20.6234 40.7847 20.7601 40.901 20.8789 41.0361C21.1328 41.3258 21.2598 41.7035 21.2598 42.1689ZM18.7354 43.3213C18.8363 43.4515 18.9535 43.5516 19.0869 43.6216C19.2204 43.6916 19.3612 43.7266 19.5093 43.7266C19.6574 43.7266 19.7884 43.6997 19.9023 43.646C20.0179 43.5923 20.1123 43.5215 20.1855 43.4336C20.2588 43.3441 20.3198 43.2383 20.3687 43.1162C20.4565 42.8965 20.5005 42.6361 20.5005 42.335C20.5005 41.8776 20.3923 41.5008 20.1758 41.2046C19.9593 40.9084 19.694 40.7603 19.3799 40.7603C19.2562 40.7603 19.1357 40.783 19.0186 40.8286C18.903 40.8742 18.8029 40.9474 18.7183 41.0483C18.6353 41.1476 18.5726 41.2624 18.5303 41.3926C18.4489 41.6335 18.4082 41.8833 18.4082 42.1421C18.4082 42.4009 18.4375 42.6296 18.4961 42.8281C18.5547 43.0267 18.6344 43.1911 18.7354 43.3213ZM23.6914 40.6992C23.846 40.5902 24.0007 40.5356 24.1553 40.5356C24.3343 40.5356 24.467 40.6349 24.5532 40.8335C24.6232 40.9946 24.6826 41.2087 24.7314 41.4756C24.7819 41.7425 24.8234 41.9639 24.856 42.1396C24.9373 42.5791 25.0464 42.9893 25.1831 43.3701C25.6063 41.7865 25.826 40.9132 25.8423 40.7505C25.8455 40.7244 25.8472 40.6813 25.8472 40.6211C25.8472 40.5609 25.8325 40.5088 25.8032 40.4648C25.8032 40.4486 25.8268 40.4339 25.874 40.4209C25.9212 40.4062 25.9692 40.3989 26.0181 40.3989C26.1662 40.3989 26.2858 40.4461 26.377 40.5405C26.4681 40.6349 26.5137 40.7342 26.5137 40.8384C26.5137 40.9425 26.4917 41.0785 26.4478 41.2461C26.4038 41.4137 26.3298 41.6335 26.2256 41.9053C26.1214 42.1771 26.0352 42.3968 25.9668 42.5645C25.8984 42.7321 25.7853 43.0007 25.6274 43.3701C25.4712 43.738 25.3727 43.9699 25.332 44.0659C25.2751 44.0773 25.2059 44.083 25.1245 44.083C25.0448 44.083 24.9666 44.0716 24.8901 44.0488C24.8153 44.0277 24.764 43.9984 24.7363 43.9609C24.6989 43.9072 24.6029 43.5923 24.4482 43.0161C24.2936 42.4383 24.1951 42.0876 24.1528 41.9639C24.1105 42.0485 24.056 42.234 23.9893 42.5205C23.9225 42.807 23.8517 43.104 23.7769 43.4116C23.702 43.7192 23.6336 43.9373 23.5718 44.0659C23.5148 44.0773 23.4473 44.083 23.3691 44.083C23.291 44.083 23.2161 44.0716 23.1445 44.0488C23.0729 44.0277 23.0249 44 23.0005 43.9658C22.9761 43.93 22.915 43.7591 22.8174 43.4531C22.7197 43.1455 22.6164 42.8184 22.5073 42.4717C22.3983 42.1234 22.2795 41.7938 22.1509 41.4829C22.0239 41.1704 21.9214 40.9897 21.8433 40.9409C21.814 40.923 21.7855 40.9132 21.7578 40.9116C21.7318 40.91 21.7057 40.9084 21.6797 40.9067C21.6536 40.9051 21.6366 40.9043 21.6284 40.9043C21.6024 40.8408 21.5894 40.7928 21.5894 40.7603C21.5894 40.7261 21.5902 40.7041 21.5918 40.6943C21.8278 40.5625 22.1053 40.4966 22.4243 40.4966C22.4797 40.4966 22.5203 40.4974 22.5464 40.499C22.5789 40.5332 22.6351 40.6838 22.7148 40.9507C22.7946 41.216 22.9053 41.6025 23.0469 42.1104C23.1901 42.6182 23.3138 43.043 23.418 43.3848C23.6442 42.335 23.8159 41.6432 23.9331 41.3096C23.8647 41.1191 23.7842 40.9157 23.6914 40.6992ZM32.5562 41.0654C32.6766 41.8678 32.7661 42.4001 32.8247 42.6621C32.8833 42.9225 32.9411 43.1707 32.998 43.4067C33.055 43.6427 33.1006 43.8389 33.1348 43.9951C33.0192 44.0326 32.88 44.0513 32.7173 44.0513C32.5562 44.0513 32.4422 44.0326 32.3755 43.9951C32.2485 43.7542 32.0972 42.9974 31.9214 41.7246C31.8921 41.513 31.875 41.3918 31.8701 41.3608C31.569 42.0737 31.3656 42.7109 31.2598 43.2725C31.2207 43.4775 31.2012 43.6216 31.2012 43.7046C31.2012 43.7876 31.2012 43.8364 31.2012 43.8511C31.1003 43.9227 30.9676 43.9585 30.8032 43.9585C30.6226 43.9585 30.5119 43.9227 30.4712 43.8511C30.4468 43.7811 30.3882 43.6012 30.2954 43.3115C30.0464 42.5303 29.825 41.8711 29.6313 41.334L29.6216 41.4756C29.5972 41.998 29.5654 42.3667 29.5264 42.5815C29.4873 42.7964 29.4515 42.973 29.4189 43.1113C29.3864 43.248 29.3473 43.3701 29.3018 43.4775C29.2578 43.5833 29.2074 43.681 29.1504 43.7705C29.0202 43.9788 28.8582 44.083 28.6646 44.083C28.5034 44.083 28.3748 44.0244 28.2788 43.9072C28.2332 43.8519 28.2104 43.7925 28.2104 43.729C28.3488 43.6362 28.4757 43.5093 28.5913 43.3481C28.7069 43.187 28.8013 43.0177 28.8745 42.8403C28.9478 42.6629 29.0112 42.4733 29.0649 42.2715C29.1772 41.8516 29.2334 41.4878 29.2334 41.1802C29.2334 41.0793 29.2261 41.0142 29.2114 40.9849C29.1968 40.9539 29.1862 40.9312 29.1797 40.9165C29.1732 40.9002 29.1602 40.8856 29.1406 40.8726C29.1211 40.8595 29.1081 40.8514 29.1016 40.8481C29.0967 40.8449 29.082 40.8392 29.0576 40.8311C29.0332 40.8213 29.0194 40.8156 29.0161 40.814C28.9901 40.7814 28.9771 40.7277 28.9771 40.6528C28.9771 40.5763 28.9803 40.5251 28.9868 40.499C29.0682 40.4827 29.1772 40.4746 29.314 40.4746C29.4523 40.4746 29.633 40.4827 29.856 40.499C29.9341 40.5153 30.1839 41.0646 30.6055 42.147C30.765 42.5571 30.8651 42.8013 30.9058 42.8794C30.9937 42.5799 31.2752 41.7881 31.7505 40.5039C31.9132 40.4925 32.0199 40.4868 32.0703 40.4868C32.1224 40.4868 32.1794 40.4974 32.2412 40.5186C32.3047 40.5381 32.3674 40.5975 32.4292 40.6968C32.491 40.7961 32.5334 40.9189 32.5562 41.0654ZM37.2021 42.1689C37.2021 42.6328 37.098 43.0251 36.8896 43.3457C36.6813 43.6647 36.3818 43.8828 35.9912 44C35.804 44.0553 35.6006 44.083 35.3809 44.083C35.1628 44.083 34.9438 44.0439 34.7241 43.9658C34.5044 43.8861 34.3075 43.7746 34.1333 43.6313C33.9608 43.4865 33.8224 43.3018 33.7183 43.0771C33.6141 42.8525 33.562 42.6051 33.562 42.335C33.562 41.8304 33.6784 41.4211 33.9111 41.1069C34.1439 40.7928 34.4792 40.5771 34.917 40.46C35.0684 40.4193 35.2295 40.3989 35.4004 40.3989C35.5729 40.3989 35.7463 40.4225 35.9204 40.4697C36.0946 40.5169 36.2581 40.5894 36.4111 40.687C36.5658 40.7847 36.7025 40.901 36.8213 41.0361C37.0752 41.3258 37.2021 41.7035 37.2021 42.1689ZM34.6777 43.3213C34.7786 43.4515 34.8958 43.5516 35.0293 43.6216C35.1628 43.6916 35.3035 43.7266 35.4517 43.7266C35.5998 43.7266 35.7308 43.6997 35.8447 43.646C35.9603 43.5923 36.0547 43.5215 36.1279 43.4336C36.2012 43.3441 36.2622 43.2383 36.311 43.1162C36.3989 42.8965 36.4429 42.6361 36.4429 42.335C36.4429 41.8776 36.3346 41.5008 36.1182 41.2046C35.9017 40.9084 35.6364 40.7603 35.3223 40.7603C35.1986 40.7603 35.0781 40.783 34.9609 40.8286C34.8454 40.8742 34.7453 40.9474 34.6606 41.0483C34.5776 41.1476 34.515 41.2624 34.4727 41.3926C34.3913 41.6335 34.3506 41.8833 34.3506 42.1421C34.3506 42.4009 34.3799 42.6296 34.4385 42.8281C34.4971 43.0267 34.5768 43.1911 34.6777 43.3213ZM40.6055 43.5679C40.6429 43.6053 40.6771 43.633 40.708 43.6509C40.7389 43.6672 40.7633 43.6761 40.7812 43.6777C40.7992 43.6794 40.8244 43.6802 40.8569 43.6802C40.8911 43.6802 40.9375 43.6647 40.9961 43.6338L41.0742 43.8096C40.9652 43.9447 40.8309 44.0399 40.6714 44.0952C40.6047 44.118 40.5509 44.1294 40.5103 44.1294C40.3556 44.1294 40.2254 44.0903 40.1196 44.0122C40.0138 43.9341 39.9227 43.8438 39.8462 43.7412C39.7697 43.6387 39.6973 43.5215 39.6289 43.3896C39.502 43.1488 39.4043 42.9038 39.3359 42.6548C39.1895 42.6743 39.0291 42.6841 38.855 42.6841V43.2212C38.855 43.353 38.8647 43.5638 38.8843 43.8535L38.894 44C38.7557 44.0423 38.5905 44.0635 38.3984 44.0635C38.208 44.0635 38.0868 44.0423 38.0347 44C38.0819 43.6566 38.1055 43.3945 38.1055 43.2139V41.2559C38.1055 41.111 38.0924 41.0182 38.0664 40.9775C38.0404 40.9368 38.0233 40.9108 38.0151 40.8994C38.007 40.8864 37.9924 40.8742 37.9712 40.8628C37.9517 40.8498 37.9378 40.8408 37.9297 40.8359C37.9118 40.8278 37.8833 40.8172 37.8442 40.8042C37.8198 40.7407 37.8076 40.6781 37.8076 40.6162C37.8076 40.5527 37.8084 40.5137 37.8101 40.499C38.2463 40.4323 38.728 40.3989 39.2554 40.3989H39.3945C39.7412 40.4054 40.0374 40.4909 40.2832 40.6553C40.4036 40.7367 40.4997 40.8424 40.5713 40.9727C40.6429 41.1029 40.6787 41.2502 40.6787 41.4146C40.6787 41.688 40.6128 41.9215 40.481 42.1152C40.3507 42.3073 40.1351 42.4521 39.834 42.5498C39.9609 42.7207 40.0675 42.8672 40.1538 42.9893C40.2401 43.1113 40.3101 43.2082 40.3638 43.2798C40.4175 43.3514 40.4614 43.4076 40.4956 43.4482C40.5314 43.4889 40.568 43.5288 40.6055 43.5679ZM39.9561 41.4194C39.9561 40.9897 39.7005 40.7749 39.1895 40.7749C39.0934 40.7749 38.9819 40.7814 38.855 40.7944V42.3057C39.4312 42.2812 39.7754 42.1283 39.8877 41.8467C39.9333 41.7279 39.9561 41.5854 39.9561 41.4194ZM43.7866 43.165C43.9054 43.165 43.9901 43.2131 44.0405 43.3091C44.091 43.4051 44.1162 43.5467 44.1162 43.7339C44.1162 43.9211 44.1032 44.026 44.0771 44.0488C43.501 44.0244 42.9728 44.0106 42.4927 44.0073C42.0142 44.0041 41.7074 44.0016 41.5723 44C41.6195 43.611 41.6431 43.1813 41.6431 42.7109V41.1289C41.6431 40.9873 41.6211 40.8962 41.5771 40.8555C41.5576 40.8376 41.5291 40.8221 41.4917 40.8091C41.4673 40.7765 41.4551 40.7244 41.4551 40.6528C41.4551 40.5796 41.4575 40.5283 41.4624 40.499C41.6073 40.4974 41.8107 40.4958 42.0728 40.4941C42.3348 40.4925 42.5374 40.4909 42.6807 40.4893C43.0827 40.4844 43.5482 40.4714 44.0771 40.4502C44.1032 40.473 44.1162 40.578 44.1162 40.7651C44.1162 40.9523 44.091 41.0939 44.0405 41.1899C43.9901 41.286 43.8957 41.334 43.7573 41.334C43.619 41.334 43.5221 41.2909 43.4668 41.2046V40.9092C42.9915 40.8864 42.6131 40.875 42.3315 40.875C42.3722 41.054 42.3926 41.2738 42.3926 41.5342C42.3926 41.5537 42.3926 41.5724 42.3926 41.5903V42.0444L43.4424 41.9907C43.4684 42.0216 43.4814 42.0843 43.4814 42.1787C43.4814 42.2715 43.4733 42.3667 43.457 42.4644C43.3675 42.4774 43.2397 42.4839 43.0737 42.4839C42.9093 42.4839 42.6823 42.4676 42.3926 42.4351V42.9111C42.3926 42.929 42.3926 42.9478 42.3926 42.9673C42.3926 43.2293 42.3722 43.4482 42.3315 43.624C42.6131 43.624 42.9915 43.6126 43.4668 43.5898V43.2944C43.4945 43.2407 43.5579 43.2025 43.6572 43.1797C43.6963 43.1699 43.7394 43.165 43.7866 43.165Z" fill="white"/>
<path d="M1.2832 32.3145L1.31836 30.416C1.31836 30.0332 1.31055 29.6914 1.29492 29.3906C1.2832 29.0859 1.24805 28.8809 1.18945 28.7754C1.13477 28.666 1.08008 28.5957 1.02539 28.5645C0.970703 28.5293 0.916016 28.502 0.861328 28.4824C0.806641 28.4629 0.775391 28.4531 0.767578 28.4531C0.705078 28.4375 0.673828 28.334 0.673828 28.1426C0.673828 27.9473 0.681641 27.8262 0.697266 27.7793C2.05664 27.4785 3.08398 27.3281 3.7793 27.3281C5.43945 27.3281 6.72852 27.7285 7.64648 28.5293C8.41992 29.2012 8.80664 30.1465 8.80664 31.3652C8.80664 32.3418 8.57422 33.1953 8.10938 33.9258C7.64453 34.6523 7.00391 35.2051 6.1875 35.584C5.375 35.959 4.44141 36.1465 3.38672 36.1465C2.80859 36.1465 2.26758 36.0977 1.76367 36C1.50586 35.8945 1.35938 35.625 1.32422 35.1914C1.29688 34.8555 1.2832 34.3496 1.2832 33.6738V32.3145ZM3.08203 30.0703L3.02344 33.6328V34.0312C3.02344 34.7773 3.0918 35.2051 3.22852 35.3145C3.36914 35.3379 3.51953 35.3496 3.67969 35.3496C3.83984 35.3496 4.05469 35.3438 4.32422 35.332C4.59375 35.3164 4.88086 35.2324 5.18555 35.0801C5.49414 34.9277 5.77734 34.709 6.03516 34.4238C6.29297 34.1387 6.49805 33.7598 6.65039 33.2871C6.80273 32.8105 6.87891 32.3008 6.87891 31.7578C6.87891 31.2109 6.81641 30.7383 6.69141 30.3398C6.57031 29.9414 6.41016 29.6113 6.21094 29.3496C6.01562 29.0879 5.78906 28.8672 5.53125 28.6875C5.03906 28.3477 4.5332 28.1777 4.01367 28.1777C3.49414 28.1777 3.13672 28.2051 2.94141 28.2598C3.03516 28.6699 3.08203 29.1562 3.08203 29.7188V30.0703ZM11.0742 34.1133V29.4141C11.0742 28.9219 10.9316 28.6055 10.6465 28.4648C10.6113 28.4453 10.5547 28.4238 10.4766 28.4004C10.4023 28.377 10.3574 28.3613 10.3418 28.3535C10.2832 28.2754 10.2539 28.1484 10.2539 27.9727C10.2539 27.793 10.2598 27.668 10.2715 27.5977C10.4668 27.5586 10.8164 27.5391 11.3203 27.5391C11.8242 27.5391 12.3418 27.5586 12.873 27.5977V34.1309C12.873 34.5059 12.8984 35.0273 12.9492 35.6953L12.9727 36C12.6406 36.1016 12.2441 36.1523 11.7832 36.1523C11.3262 36.1523 11.0352 36.1016 10.9102 36C11.0195 35.1758 11.0742 34.5469 11.0742 34.1133ZM21.5449 34.9922C20.7676 35.8008 19.7754 36.2051 18.5684 36.2051C17.4316 36.2051 16.498 35.8594 15.7676 35.168C15.4043 34.8203 15.1191 34.3652 14.9121 33.8027C14.709 33.2363 14.6074 32.5508 14.6074 31.7461C14.6074 30.9375 14.7969 30.1914 15.1758 29.5078C15.5547 28.8242 16.0859 28.2949 16.7695 27.9199C17.457 27.5449 18.2207 27.3574 19.0605 27.3574C19.9043 27.3574 20.668 27.5176 21.3516 27.8379C21.4219 27.9238 21.457 28.0332 21.457 28.166C21.457 28.2949 21.457 28.3789 21.457 28.418L21.375 29.7129C21.1602 29.8574 20.9512 29.9297 20.748 29.9297C20.5488 29.9297 20.3906 29.9004 20.2734 29.8418C20.1562 29.7793 20.0703 29.6934 20.0156 29.584C19.9219 29.3965 19.875 29.209 19.875 29.0215C19.875 28.8301 19.8789 28.6602 19.8867 28.5117C19.668 28.3516 19.377 28.2715 19.0137 28.2715C18.6543 28.2715 18.3633 28.3086 18.1406 28.3828C17.9219 28.4531 17.7148 28.5703 17.5195 28.7344C17.3242 28.8984 17.1582 29.1035 17.0215 29.3496C16.7246 29.8848 16.5762 30.6133 16.5762 31.5352C16.5762 32.6992 16.8301 33.5938 17.3379 34.2188C17.8496 34.8398 18.5117 35.1504 19.3242 35.1504C19.9141 35.1504 20.498 34.9023 21.0762 34.4062C21.3027 34.5156 21.459 34.7109 21.5449 34.9922ZM30.252 28.8984C30.209 29.168 30.1309 29.3613 30.0176 29.4785C29.9082 29.5957 29.7148 29.6543 29.4375 29.6543C29.1602 29.6543 28.9316 29.5527 28.752 29.3496V28.5234C28.2949 28.5586 27.7734 28.582 27.1875 28.5938V33.6504C27.1875 34.5488 27.2363 35.332 27.334 36C27.0293 36.1016 26.6445 36.1523 26.1797 36.1523C25.7188 36.1523 25.4043 36.1016 25.2363 36L25.3887 34.1133V28.5938L23.7246 28.5352V29.3496C23.6738 29.4238 23.5801 29.4941 23.4434 29.5605C23.3066 29.623 23.1348 29.6543 22.9277 29.6543C22.7207 29.6543 22.5605 29.5957 22.4473 29.4785C22.3379 29.3613 22.2598 29.1699 22.2129 28.9043C22.1699 28.6387 22.1484 28.3633 22.1484 28.0781C22.1484 27.7891 22.1855 27.6055 22.2598 27.5273C23.248 27.5742 24.502 27.5977 26.0215 27.5977C27.541 27.5977 28.9375 27.5742 30.2109 27.5273C30.2852 27.6055 30.3223 27.7852 30.3223 28.0664C30.3223 28.3477 30.2988 28.625 30.252 28.8984ZM40.6992 27.9258C40.8242 28.0859 40.9102 28.248 40.957 28.4121C41.0078 28.5762 41.0723 28.9941 41.1504 29.666C41.2324 30.334 41.3164 31.1348 41.4023 32.0684C41.4883 33.002 41.5586 33.7246 41.6133 34.2363C41.668 34.748 41.7539 35.332 41.8711 35.9883C41.5898 36.0781 41.25 36.123 40.8516 36.123C40.457 36.123 40.1797 36.0781 40.0195 35.9883C39.8555 35.5195 39.7324 34.5918 39.6504 33.2051L37.2598 33.0938C36.8965 35.0469 36.2656 36.0801 35.3672 36.1934C35.3281 36.1973 35.291 36.1992 35.2559 36.1992C34.9824 36.1992 34.7324 36.1172 34.5059 35.9531C34.2793 35.7852 34.166 35.584 34.166 35.3496C34.4902 35.1309 34.7891 34.8262 35.0625 34.4355C35.3398 34.0449 35.5684 33.627 35.748 33.1816C35.9316 32.7324 36.0898 32.2578 36.2227 31.7578C36.4648 30.8164 36.5859 29.9414 36.5859 29.1328C36.5859 28.8555 36.5527 28.6504 36.4863 28.5176C36.4199 28.3848 36.2812 28.3027 36.0703 28.2715C36.0078 28.1934 35.9766 28.0547 35.9766 27.8555C35.9766 27.6562 35.9844 27.5312 36 27.4805C37.0898 27.5391 38.5059 27.5781 40.248 27.5977C40.4277 27.6523 40.5781 27.7617 40.6992 27.9258ZM39.5859 32.3145C39.5664 31.9004 39.5449 31.3789 39.5215 30.75C39.498 30.1211 39.4824 29.7324 39.4746 29.584C39.4668 29.4316 39.4551 29.2891 39.4395 29.1562C39.4238 29.0195 39.4082 28.9219 39.3926 28.8633C39.377 28.8047 39.3516 28.752 39.3164 28.7051C39.2695 28.6387 39.1504 28.5938 38.959 28.5703C38.7715 28.5469 38.334 28.5352 37.6465 28.5352C37.6465 29.0469 37.6172 29.6797 37.5586 30.4336C37.5039 31.1875 37.4492 31.7793 37.3945 32.209H37.6172C38.2891 32.209 38.9453 32.2441 39.5859 32.3145ZM45.5918 32.8418V34.1309C45.5918 34.4473 45.6152 34.9531 45.6621 35.6484L45.6855 36C45.3535 36.1016 44.957 36.1523 44.4961 36.1523C44.0391 36.1523 43.748 36.1016 43.623 36C43.7363 35.1758 43.793 34.5469 43.793 34.1133V29.4141C43.793 29.0664 43.7617 28.8438 43.6992 28.7461C43.6367 28.6484 43.5957 28.5859 43.5762 28.5586C43.5566 28.5273 43.5215 28.498 43.4707 28.4707C43.4238 28.4395 43.3906 28.418 43.3711 28.4062C43.3281 28.3867 43.2598 28.3613 43.166 28.3301C43.0879 28.1191 43.0605 27.8789 43.084 27.6094C44.1816 27.4414 45.3477 27.3574 46.582 27.3574H46.9219C47.7539 27.373 48.4609 27.5703 49.043 27.9492C49.3281 28.1367 49.5527 28.3848 49.7168 28.6934C49.8848 29.002 49.9688 29.3457 49.9688 29.7246C49.9688 30.0996 49.9258 30.4355 49.8398 30.7324C49.7539 31.0293 49.6055 31.3105 49.3945 31.5762C49.1875 31.8379 48.9219 32.0586 48.5977 32.2383C47.8945 32.625 46.8926 32.8262 45.5918 32.8418ZM48.2344 30.0586C48.2344 28.8594 47.6211 28.2598 46.3945 28.2598C46.0547 28.2598 45.7383 28.2793 45.4453 28.3184C45.543 28.748 45.5918 29.332 45.5918 30.0703V31.9336C46.8691 31.8906 47.6641 31.6367 47.9766 31.1719C48.1484 30.9141 48.2344 30.543 48.2344 30.0586ZM53.7598 32.8418V34.1309C53.7598 34.4473 53.7832 34.9531 53.8301 35.6484L53.8535 36C53.5215 36.1016 53.125 36.1523 52.6641 36.1523C52.207 36.1523 51.916 36.1016 51.791 36C51.9043 35.1758 51.9609 34.5469 51.9609 34.1133V29.4141C51.9609 29.0664 51.9297 28.8438 51.8672 28.7461C51.8047 28.6484 51.7637 28.5859 51.7441 28.5586C51.7246 28.5273 51.6895 28.498 51.6387 28.4707C51.5918 28.4395 51.5586 28.418 51.5391 28.4062C51.4961 28.3867 51.4277 28.3613 51.334 28.3301C51.2559 28.1191 51.2285 27.8789 51.252 27.6094C52.3496 27.4414 53.5156 27.3574 54.75 27.3574H55.0898C55.9219 27.373 56.6289 27.5703 57.2109 27.9492C57.4961 28.1367 57.7207 28.3848 57.8848 28.6934C58.0527 29.002 58.1367 29.3457 58.1367 29.7246C58.1367 30.0996 58.0938 30.4355 58.0078 30.7324C57.9219 31.0293 57.7734 31.3105 57.5625 31.5762C57.3555 31.8379 57.0898 32.0586 56.7656 32.2383C56.0625 32.625 55.0605 32.8262 53.7598 32.8418ZM56.4023 30.0586C56.4023 28.8594 55.7891 28.2598 54.5625 28.2598C54.2227 28.2598 53.9062 28.2793 53.6133 28.3184C53.7109 28.748 53.7598 29.332 53.7598 30.0703V31.9336C55.0371 31.8906 55.832 31.6367 56.1445 31.1719C56.3164 30.9141 56.4023 30.543 56.4023 30.0586Z" fill="white"/>
<path d="M35 5H25.88L25 2H19C18.4696 2 17.9609 2.21071 17.5858 2.58579C17.2107 2.96086 17 3.46957 17 4V17C17 17.5304 17.2107 18.0391 17.5858 18.4142C17.9609 18.7893 18.4696 19 19 19H26L27 22H35C35.5304 22 36.0391 21.7893 36.4142 21.4142C36.7893 21.0391 37 20.5304 37 20V7C37 6.46957 36.7893 5.96086 36.4142 5.58579C36.0391 5.21071 35.5304 5 35 5ZM22.17 14.59C21.0853 14.59 20.045 14.1591 19.2779 13.3921C18.5109 12.625 18.08 11.5847 18.08 10.5C18.08 9.41526 18.5109 8.37496 19.2779 7.60793C20.045 6.84091 21.0853 6.41 22.17 6.41C23.21 6.41 24.16 6.78 24.91 7.5L25 7.54L23.75 8.72L23.69 8.67C23.4 8.4 22.91 8.08 22.17 8.08C20.86 8.08 19.79 9.17 19.79 10.5C19.79 11.83 20.86 12.92 22.17 12.92C23.54 12.92 24.13 12.05 24.29 11.46H22.08V9.91H26.03L26.04 10C26.08 10.19 26.09 10.38 26.09 10.59C26.09 12.94 24.5 14.59 22.17 14.59ZM28.2 12.88C28.53 13.5 28.94 14.06 29.39 14.58L28.85 15.11L28.2 12.88ZM28.97 12.12H28L27.67 11.08H31.66C31.66 11.08 31.32 12.39 30.1 13.82C29.58 13.2 29.21 12.59 28.97 12.12ZM36 20C36 20.2652 35.8946 20.5196 35.7071 20.7071C35.5196 20.8946 35.2652 21 35 21H28L30 19L29.19 16.23L30.11 15.31L32.79 18L33.5 17.27L30.81 14.59C31.71 13.56 32.41 12.34 32.73 11.08H34V10.04H30.36V9H29.32V10.04H27.36L26.18 6H35C35.2652 6 35.5196 6.10536 35.7071 6.29289C35.8946 6.48043 36 6.73478 36 7V20Z" fill="white"/>
<line x1="10" y1="42.25" x2="1" y2="42.25" stroke="white" stroke-width="0.5"/>
<line x1="54" y1="42.25" x2="45" y2="42.25" stroke="white" stroke-width="0.5"/>
</svg>
